<svg id="レイヤー_1" data-name="レイヤー 1" xmlns="http://www.w3.org/2000/svg" viewBox="0 0 55 55"><defs><style>.cls-1{fill:#ed8064;}.cls-2{fill:#fff;}</style></defs><g id="グループ_6053" data-name="グループ 6053"><g id="グループ_6052" data-name="グループ 6052"><g id="グループ_6049" data-name="グループ 6049"><path id="パス_17869" data-name="パス 17869" class="cls-1" d="M9.62,24V51a.42.42,0,0,1-.42.42H4.87A.42.42,0,0,1,4.45,51h0V4a.41.41,0,0,1,.42-.41H25.09a.42.42,0,0,1,.42.42V23.17a.42.42,0,0,1-.42.42H10a.42.42,0,0,0-.42.42ZM20.41,7.73H10a.42.42,0,0,0-.42.42v3a.42.42,0,0,0,.42.42H20.41a.42.42,0,0,0,.42-.42h0v-3A.42.42,0,0,0,20.41,7.73ZM10,19.52H20.41a.42.42,0,0,0,.42-.42h0V15.6a.42.42,0,0,0-.42-.43H10a.42.42,0,0,0-.42.43v3.5a.42.42,0,0,0,.42.42Zm19.35,7.63-.13,1.34v0l-.33,1.93a.38.38,0,0,0,.07.31,28.48,28.48,0,0,0,10.73,9.17.43.43,0,0,1,.19.57l0,0-1.91,3a.43.43,0,0,1-.57.14,32,32,0,0,1-9.55-8.46.42.42,0,0,0-.59-.09.53.53,0,0,0-.12.14,19,19,0,0,1-3.95,5.35,41.59,41.59,0,0,1-5.65,4.23.42.42,0,0,1-.58-.13l-2-3.1a.42.42,0,0,1,.12-.58l0,0a20.25,20.25,0,0,0,7.22-5.76,18.57,18.57,0,0,0,3-8.64.41.41,0,0,1,.47-.37h0l3.2.42A.42.42,0,0,1,29.39,27.15Zm-.4-4V4a.42.42,0,0,1,.43-.42H50.13a.42.42,0,0,1,.42.42h0V45.18a6.8,6.8,0,0,1-1,4.15q-1,1.32-4.11,1.32H38.9a.43.43,0,0,1-.41-.31l-1-3.7a.41.41,0,0,1,.29-.52l.12,0,5.64.1c1.27,0,1.9-.55,1.91-1.66V24a.42.42,0,0,0-.42-.42H29.42a.42.42,0,0,1-.42-.42Zm5.17-11.64H45a.42.42,0,0,0,.42-.42v-3A.42.42,0,0,0,45,7.73H34.16a.42.42,0,0,0-.43.42h0v3A.42.42,0,0,0,34.16,11.53ZM45,15.18H34.16a.42.42,0,0,0-.43.42v3.5a.42.42,0,0,0,.43.42H45a.42.42,0,0,0,.42-.42V15.6a.43.43,0,0,0-.42-.42Z"/></g><g id="グループ_6050" data-name="グループ 6050"><path id="長方形_745" data-name="長方形 745" class="cls-2" d="M47.25,5.31h1.46a.49.49,0,0,1,.48.48h0a.49.49,0,0,1-.48.49H47.25a.49.49,0,0,1-.49-.49h0A.49.49,0,0,1,47.25,5.31Z"/><path id="長方形_746" data-name="長方形 746" class="cls-2" d="M47.25,8.08h1.46a.48.48,0,0,1,.48.48h0a.49.49,0,0,1-.48.49H47.25a.49.49,0,0,1-.49-.49h0A.48.48,0,0,1,47.25,8.08Z"/><path id="長方形_747" data-name="長方形 747" class="cls-2" d="M47.25,10.85h1.46a.48.48,0,0,1,.48.48h0a.49.49,0,0,1-.48.49H47.25a.49.49,0,0,1-.49-.49h0A.48.48,0,0,1,47.25,10.85Z"/><path id="長方形_748" data-name="長方形 748" class="cls-2" d="M47.25,13.61h1.46a.49.49,0,0,1,.48.49h0a.48.48,0,0,1-.48.48H47.25a.48.48,0,0,1-.49-.48h0A.49.49,0,0,1,47.25,13.61Z"/><path id="長方形_749" data-name="長方形 749" class="cls-2" d="M47.25,16.38h1.46a.49.49,0,0,1,.48.49h0a.49.49,0,0,1-.48.48H47.25a.49.49,0,0,1-.49-.48h0A.49.49,0,0,1,47.25,16.38Z"/><path id="長方形_750" data-name="長方形 750" class="cls-2" d="M47.25,19.15h1.46a.49.49,0,0,1,.48.49h0a.49.49,0,0,1-.48.48H47.25a.49.49,0,0,1-.49-.48h0A.49.49,0,0,1,47.25,19.15Z"/><path id="長方形_751" data-name="長方形 751" class="cls-2" d="M47.25,21.92h1.46a.49.49,0,0,1,.48.48h0a.49.49,0,0,1-.48.49H47.25a.49.49,0,0,1-.49-.49h0A.49.49,0,0,1,47.25,21.92Z"/><path id="長方形_752" data-name="長方形 752" class="cls-2" d="M47.25,24.69h1.46a.49.49,0,0,1,.48.48h0a.49.49,0,0,1-.48.49H47.25a.49.49,0,0,1-.49-.49h0A.49.49,0,0,1,47.25,24.69Z"/><path id="長方形_753" data-name="長方形 753" class="cls-2" d="M47.25,27.46h1.46a.48.48,0,0,1,.48.48h0a.49.49,0,0,1-.48.49H47.25a.49.49,0,0,1-.49-.49h0A.48.48,0,0,1,47.25,27.46Z"/><path id="長方形_754" data-name="長方形 754" class="cls-2" d="M47.25,30.23h1.46a.48.48,0,0,1,.48.48h0a.49.49,0,0,1-.48.49H47.25a.49.49,0,0,1-.49-.49h0A.48.48,0,0,1,47.25,30.23Z"/><path id="長方形_755" data-name="長方形 755" class="cls-2" d="M47.25,33h1.46a.49.49,0,0,1,.48.49h0a.48.48,0,0,1-.48.48H47.25a.48.48,0,0,1-.49-.48h0A.49.49,0,0,1,47.25,33Z"/><path id="長方形_756" data-name="長方形 756" class="cls-2" d="M47.25,35.76h1.46a.49.49,0,0,1,.48.49h0a.49.49,0,0,1-.48.48H47.25a.49.49,0,0,1-.49-.48h0A.49.49,0,0,1,47.25,35.76Z"/><path id="長方形_757" data-name="長方形 757" class="cls-2" d="M47.25,38.53h1.46a.49.49,0,0,1,.48.49h0a.49.49,0,0,1-.48.48H47.25a.49.49,0,0,1-.49-.48h0A.49.49,0,0,1,47.25,38.53Z"/><path id="長方形_758" data-name="長方形 758" class="cls-2" d="M47.25,41.3h1.46a.49.49,0,0,1,.48.48h0a.49.49,0,0,1-.48.49H47.25a.49.49,0,0,1-.49-.49h0A.49.49,0,0,1,47.25,41.3Z"/><path id="長方形_759" data-name="長方形 759" class="cls-2" d="M47.25,44.07h1.46a.49.49,0,0,1,.48.48h0a.49.49,0,0,1-.48.49H47.25a.49.49,0,0,1-.49-.49h0A.49.49,0,0,1,47.25,44.07Z"/><path id="長方形_760" data-name="長方形 760" class="cls-2" d="M47.25,46.84h1.46a.48.48,0,0,1,.48.48h0a.49.49,0,0,1-.48.49H47.25a.49.49,0,0,1-.49-.49h0A.48.48,0,0,1,47.25,46.84Z"/></g><g id="グループ_6051" data-name="グループ 6051"><path id="長方形_761" data-name="長方形 761" class="cls-2" d="M6.21,5.31H7.67a.49.49,0,0,1,.49.48h0a.49.49,0,0,1-.49.49H6.21a.49.49,0,0,1-.49-.49h0A.49.49,0,0,1,6.21,5.31Z"/><path id="長方形_762" data-name="長方形 762" class="cls-2" d="M6.21,8.08H7.67a.48.48,0,0,1,.49.48h0a.49.49,0,0,1-.49.49H6.21a.49.49,0,0,1-.49-.49h0A.48.48,0,0,1,6.21,8.08Z"/><path id="長方形_763" data-name="長方形 763" class="cls-2" d="M6.21,10.85H7.67a.48.48,0,0,1,.49.48h0a.49.49,0,0,1-.49.49H6.21a.49.49,0,0,1-.49-.49h0A.48.48,0,0,1,6.21,10.85Z"/><path id="長方形_764" data-name="長方形 764" class="cls-2" d="M6.21,13.61H7.67a.49.49,0,0,1,.49.49h0a.48.48,0,0,1-.49.48H6.21a.48.48,0,0,1-.49-.48h0A.49.49,0,0,1,6.21,13.61Z"/><path id="長方形_765" data-name="長方形 765" class="cls-2" d="M6.21,16.38H7.67a.49.49,0,0,1,.49.49h0a.49.49,0,0,1-.49.48H6.21a.49.49,0,0,1-.49-.48h0A.49.49,0,0,1,6.21,16.38Z"/><path id="長方形_766" data-name="長方形 766" class="cls-2" d="M6.21,19.15H7.67a.49.49,0,0,1,.49.49h0a.49.49,0,0,1-.49.48H6.21a.49.49,0,0,1-.49-.48h0A.49.49,0,0,1,6.21,19.15Z"/><path id="長方形_767" data-name="長方形 767" class="cls-2" d="M6.21,21.92H7.67a.49.49,0,0,1,.49.48h0a.49.49,0,0,1-.49.49H6.21a.49.49,0,0,1-.49-.49h0A.49.49,0,0,1,6.21,21.92Z"/><path id="長方形_768" data-name="長方形 768" class="cls-2" d="M6.21,24.69H7.67a.49.49,0,0,1,.49.48h0a.49.49,0,0,1-.49.49H6.21a.49.49,0,0,1-.49-.49h0A.49.49,0,0,1,6.21,24.69Z"/><path id="長方形_769" data-name="長方形 769" class="cls-2" d="M6.21,27.46H7.67a.48.48,0,0,1,.49.48h0a.49.49,0,0,1-.49.49H6.21a.49.49,0,0,1-.49-.49h0A.48.48,0,0,1,6.21,27.46Z"/><path id="長方形_770" data-name="長方形 770" class="cls-2" d="M6.21,30.23H7.67a.48.48,0,0,1,.49.48h0a.49.49,0,0,1-.49.49H6.21a.49.49,0,0,1-.49-.49h0A.48.48,0,0,1,6.21,30.23Z"/><path id="長方形_771" data-name="長方形 771" class="cls-2" d="M6.21,33H7.67a.49.49,0,0,1,.49.49h0a.48.48,0,0,1-.49.48H6.21a.48.48,0,0,1-.49-.48h0A.49.49,0,0,1,6.21,33Z"/><path id="長方形_772" data-name="長方形 772" class="cls-2" d="M6.21,35.76H7.67a.49.49,0,0,1,.49.49h0a.49.49,0,0,1-.49.48H6.21a.49.49,0,0,1-.49-.48h0A.49.49,0,0,1,6.21,35.76Z"/><path id="長方形_773" data-name="長方形 773" class="cls-2" d="M6.21,38.53H7.67a.49.49,0,0,1,.49.49h0a.49.49,0,0,1-.49.48H6.21A.49.49,0,0,1,5.72,39h0A.49.49,0,0,1,6.21,38.53Z"/><path id="長方形_774" data-name="長方形 774" class="cls-2" d="M6.21,41.3H7.67a.49.49,0,0,1,.49.48h0a.49.49,0,0,1-.49.49H6.21a.49.49,0,0,1-.49-.49h0A.49.49,0,0,1,6.21,41.3Z"/><path id="長方形_775" data-name="長方形 775" class="cls-2" d="M6.21,44.07H7.67a.49.49,0,0,1,.49.48h0a.49.49,0,0,1-.49.49H6.21a.49.49,0,0,1-.49-.49h0A.49.49,0,0,1,6.21,44.07Z"/><path id="長方形_776" data-name="長方形 776" class="cls-2" d="M6.21,46.84H7.67a.48.48,0,0,1,.49.48h0a.49.49,0,0,1-.49.49H6.21a.49.49,0,0,1-.49-.49h0A.48.48,0,0,1,6.21,46.84Z"/></g></g></g></svg>