<svg id="レイヤー_1" data-name="レイヤー 1" xmlns="http://www.w3.org/2000/svg" viewBox="0 0 122 100"><defs><style>.cls-1{fill:#ff7600;}</style></defs><path class="cls-1" d="M116.9,12.88a3.2,3.2,0,0,1-1.6,3.57c-2.69,1.93-5.47,3.73-8.31,5.44a73.29,73.29,0,0,1-6.77,3.62,8,8,0,0,1-6.23.73A8,8,0,0,0,92.86,26a19.1,19.1,0,0,0-3.3,2.29C87,30.08,84.75,32.25,82,33.78a8.34,8.34,0,0,1-2.9,1.08c-3.43.49-5-1.25-6.39-4.89-.46-1.23-.39-1.26-1.26-2.06-1.32,2.34-2.63,4.65-3.93,7a13.15,13.15,0,0,1-2.9,3.5c-1.42,1.22-2.83,1.66-4.55.72a4.1,4.1,0,0,0-1-.27c-1.19,1.33-1.61,3.07-2.78,4.39-1.76,2-3.64,1.88-4.86-.52-.53-1.06-1.07-2.09-.6-3.36.21-.57,0-1.09-.88-1.27-.84,1.41-2.2,2.55-2.44,4.36a1.5,1.5,0,0,1-.24.78c-1.71,1.85-2.63,4.15-3.69,6.37a1.72,1.72,0,0,1-1.06.93c-1.26-.9-1.39-1.1-.89-2.49a6.79,6.79,0,0,0,.18-4,1.76,1.76,0,0,0-1.23,1,40.3,40.3,0,0,0-2,3.67c-1.06,2.41-2.12,4.81-3.21,7.21a17.87,17.87,0,0,0-1.15,9.16,85,85,0,0,1,.36,12,18.69,18.69,0,0,1-1.34,6.46,46.83,46.83,0,0,1-2.75,6.26A27.91,27.91,0,0,1,28,93.13c-.76.88-1.69,1.84-3,1.28a4,4,0,0,1-2.7-3.13,21.32,21.32,0,0,1,.21-5.17c.34-4.63,2.23-8.84,3.79-13.12a63.83,63.83,0,0,1,3.93-8c1.61-3,2.58-6.1,1.94-9.56a10.76,10.76,0,0,1,.06-3.3,17.5,17.5,0,0,0-.37-6.18L29.5,48a3.76,3.76,0,0,1-1.7,1.16c-2.43.41-4,2.2-5.6,3.73q-3.45,3.27-6.79,6.69a40.33,40.33,0,0,1-5.35,4.26A2.92,2.92,0,0,1,6.55,64a3,3,0,0,1-1.19-3.31c.43-2.3,1-4.58,1.38-6.89.24-1.36.4-2.74.76-4.07C7.71,49,8.1,48.48,9,49c.09,4.29-1.94,8.3-1.85,12.41a1.82,1.82,0,0,0,2.48.19,26.15,26.15,0,0,0,5.9-4.17c2.79-2.5,5.28-5.31,8.17-7.7a3.69,3.69,0,0,0,1.33-2.92A8.61,8.61,0,0,1,27,41.43a19.09,19.09,0,0,1,3.44-3.85,3.76,3.76,0,0,1,2.07-.87c1.5-.05,2.83.8,2.36,2.55a29.47,29.47,0,0,0-.6,7.44,20.43,20.43,0,0,1-.23,2.47A6.59,6.59,0,0,0,34.32,53c.9.17,1.21-.42,1.47-1,1.71-3.56,3.4-7.12,5.06-10.71.57-1.25.21-2.77,1.09-4a2,2,0,0,1,2.71.75c.19,1.1-.8,2.26,0,3.34A.81.81,0,0,0,45.76,41c.83-1.61,2.33-2.77,3-4.5a2.6,2.6,0,0,1,.56-.87,1.57,1.57,0,0,1,2.65.1,5.11,5.11,0,0,1,1,2.9,3.56,3.56,0,0,0,1,2.82c.71.27,1.19-.12,1.62-.6A8,8,0,0,0,57,38.56a62.31,62.31,0,0,0,2.71-6.94A2.87,2.87,0,0,1,60.1,31c1.63.64,1.75.78,1.59,2.17-.06.55-.24,1.08-.31,1.63a2.13,2.13,0,0,0,.51,2.11c.89.36,1.46-.25,2-.7a13.29,13.29,0,0,0,2.74-3.11,57.09,57.09,0,0,0,5-8.81,11.81,11.81,0,0,0,.94-6c-1.78.2-1.78.2-5.27,3.14-.52-.28-.38-.7-.14-1a6.24,6.24,0,0,1,2-2.1c.78-.44,1.42-1.13,2.19-1.57a4.81,4.81,0,0,0,2.27-4c.18-1.3.48-2.58.76-3.87a7.05,7.05,0,0,1,1.1-2.59c.93-.15,1.26.29,1.26,1,0,1.59.23,3.2-.48,4.71a.85.85,0,0,0,0,.85c.62.51,1.25.12,1.87-.15C81.84,11,85.57,9.3,89.34,7.74A38.32,38.32,0,0,1,94.64,6c2.88-.72,5.76-1.43,8.69-1.92,1.32-.22,2.67-1,3.86-.15.16.66-.12.92-.57,1s-1.07.3-1.61.41a101.68,101.68,0,0,0-15.07,3.9,52.2,52.2,0,0,0-7.83,3.31c-1.33.75-2.8,1.2-4.14,1.95-1.79,1-3.21,1.91-3.37,4.43-.15,2.24-.82,4.47-.7,6.77a10.49,10.49,0,0,0,1.34,5.17,3.51,3.51,0,0,0,4.4,1.67A15.93,15.93,0,0,0,84.84,30a74.49,74.49,0,0,0,6-4.52A4.17,4.17,0,0,0,92,24.11c-.34-3.22.18-6.29,3-8.54,1.91,1.19,2.55,2.79,1.91,4.58a11.8,11.8,0,0,1-.81,1.68,2,2,0,0,0-.18,2.05,5.06,5.06,0,0,0,3.76-.14A92.58,92.58,0,0,0,110.71,18,18,18,0,0,0,116.9,12.88ZM32.13,64.33A3.17,3.17,0,0,0,30.83,66c-.77,1.62-1.56,3.25-2.29,4.89A54.58,54.58,0,0,0,24.87,81c-.69,3-1.47,6-.89,9.22.15.83.4,1.47,1.22,1.75a1.82,1.82,0,0,0,2-.71c.67-.79,1.28-1.63,1.88-2.48a20.65,20.65,0,0,0,3.75-10.39c.32-3.88,0-7.75-.08-11.62A4,4,0,0,0,32.13,64.33Zm-5-18.64a17.71,17.71,0,0,0,4.29-4.87.69.69,0,0,0-.25-.93c-1.12-.34-1.71.53-2.13,1.22A9.25,9.25,0,0,0,27.18,45.69ZM95,21.26c.32-1,1.21-1.92,0-3.05-.23,1-1.87,1.52-.92,3Z"/><path class="cls-1" d="M5.36,40c-.83-.59-.75-1.48-1.62-1.69a4.7,4.7,0,0,1,5.49.07A8.82,8.82,0,0,1,5.36,40Z"/><path class="cls-1" d="M54,19.29c.82-.45,1.19-1.63,2.28-1.13.85.38.94,1.26.78,2.15a4.47,4.47,0,0,1-1.77.92A2.12,2.12,0,0,1,54,19.29Z"/></svg>