<svg id="レイヤー_1" data-name="レイヤー 1" xmlns="http://www.w3.org/2000/svg" viewBox="0 0 333 280"><defs><style>.cls-1{fill:#ff7600;}</style></defs><path class="cls-1" d="M314.51,39.9c1,4.47-1.12,7.19-4.22,9.41-7.11,5.1-14.45,9.85-22,14.39a201.82,201.82,0,0,1-17.88,9.56c-5.16,2.45-10.66,3.92-16.46,1.93a20.15,20.15,0,0,0-3-.59c-3.49,1.51-5.88,4.09-8.7,6.05C235.56,85.31,229.6,91,222.42,95.09a22,22,0,0,1-7.67,2.85c-9.06,1.29-13.27-3.3-16.87-12.91-1.23-3.26-1-3.34-3.33-5.43-3.48,6.16-6.94,12.28-10.39,18.41a34,34,0,0,1-7.65,9.22c-3.75,3.23-7.47,4.38-12,1.91a12.28,12.28,0,0,0-2.71-.72c-3.14,3.52-4.26,8.13-7.33,11.61-4.65,5.28-9.63,5-12.84-1.39-1.41-2.78-2.84-5.51-1.6-8.86.56-1.5-.08-2.88-2.3-3.36-2.22,3.73-5.83,6.73-6.46,11.52a3.88,3.88,0,0,1-.62,2.06c-4.53,4.88-7,10.95-9.75,16.81a4.55,4.55,0,0,1-2.81,2.47c-3.33-2.39-3.66-2.92-2.36-6.58a17.94,17.94,0,0,0,.5-10.52A4.77,4.77,0,0,0,113,124.9c-1.77,3.2-3.67,6.35-5.14,9.69-2.79,6.36-5.59,12.72-8.49,19-3.51,7.65-3.73,15.93-3,24.2a223.67,223.67,0,0,1,.93,31.8c-.33,5.84-1.14,11.58-3.53,17.05s-4,11.31-7.25,16.53a72.46,72.46,0,0,1-6.65,8.61c-2,2.34-4.46,4.86-8,3.41s-6.46-4.1-7.15-8.28c-.75-4.58.23-9.12.57-13.66.9-12.23,5.89-23.35,10-34.64,2.67-7.34,6.69-14.22,10.4-21.15,4.25-8,6.79-16.12,5.11-25.27a28.41,28.41,0,0,1,.17-8.72,46.16,46.16,0,0,0-1-16.3c-2.47,2.12-4.37,3.74-6.25,5.38-1.37,1.22-2.65,2.75-4.49,3.06-6.43,1.09-10.53,5.81-14.8,9.86q-9.12,8.66-17.94,17.66c-4.17,4.28-9.23,7.73-14.12,11.25-2.79,2-6.08,2.59-9.26.49s-3.8-5.3-3.16-8.74c1.14-6.09,2.62-12.11,3.66-18.22.62-3.59,1-7.22,2-10.74.55-2,1.57-3.3,4.06-2,.25,11.36-5.13,21.93-4.89,32.8,2.51,2.49,4.57,1.46,6.54.49a68.9,68.9,0,0,0,15.61-11c7.34-6.61,13.92-14,21.57-20.35a9.69,9.69,0,0,0,3.5-7.71,22.77,22.77,0,0,1,5.13-14.13c2.86-3.55,5.31-7.43,9.07-10.17a9.91,9.91,0,0,1,5.49-2.28c4-.15,7.47,2.11,6.22,6.72-1.74,6.45-1.51,13.06-1.58,19.65a53.2,53.2,0,0,1-.62,6.54c-.47,3.38-.81,6.84.72,10.11,2.37.44,3.21-1.11,3.89-2.53,4.5-9.41,9-18.83,13.35-28.3,1.52-3.3.55-7.33,2.89-10.65,2.76-1.1,5.19-.76,7.15,2,.5,2.89-2.12,6,0,8.81a2.13,2.13,0,0,0,2.89-1.1c2.18-4.24,6.15-7.29,7.8-11.88a6.72,6.72,0,0,1,1.49-2.28c2.3-2.46,5-2.4,7,.26a13.55,13.55,0,0,1,2.61,7.66c.21,4.21.32,4.2,2.63,7.45,1.9.72,3.15-.31,4.31-1.59a21.2,21.2,0,0,0,3.78-6c2.59-6,5.33-12,7.16-18.32a7.75,7.75,0,0,1,1.09-1.77c4.31,1.71,4.61,2.08,4.2,5.73-.16,1.45-.63,2.86-.82,4.31-.26,2-.43,4,1.36,5.57,2.34,1,3.83-.65,5.38-1.85a35.6,35.6,0,0,0,7.24-8.21A150.17,150.17,0,0,0,195,69.89a31.24,31.24,0,0,0,2.48-16c-4.72.54-4.72.54-13.92,8.3-1.39-.74-1-1.84-.38-2.76,1.43-2.1,2.83-4.21,5.19-5.55,2.05-1.17,3.73-3,5.78-4.15,4.14-2.37,5.4-6.15,6-10.51.47-3.43,1.28-6.83,2-10.22a18.89,18.89,0,0,1,2.91-6.85c2.44-.4,3.33.78,3.32,2.73,0,4.18.61,8.43-1.25,12.44a2.24,2.24,0,0,0-.08,2.24c1.65,1.34,3.3.31,4.95-.41,9.9-4.29,19.75-8.72,29.72-12.85a99.87,99.87,0,0,1,14-4.68c7.6-1.89,15.21-3.78,23-5.08a60.31,60.31,0,0,1,10.19-.37c.41,1.74-.31,2.41-1.52,2.73-1.42.38-2.83.79-4.26,1.09-13.43,2.78-26.88,5.49-39.79,10.29-7,2.6-14.11,5-20.68,8.76-3.5,2-7.38,3.17-10.92,5.14-4.73,2.63-8.49,5-8.92,11.7-.38,5.9-2.15,11.81-1.85,17.86.23,4.78,1,9.45,3.54,13.66,2.8,4.58,6.42,5.78,11.63,4.42a42.66,42.66,0,0,0,13.73-6.69c5.39-3.79,10.72-7.66,15.71-12a10.53,10.53,0,0,0,3.1-3.62c-.91-8.52.48-16.63,7.95-22.56,5,3.15,6.74,7.38,5,12.09a31.53,31.53,0,0,1-2.11,4.43c-.93,1.67-1.56,3.3-.49,5.43a13.39,13.39,0,0,0,9.92-.37,243.87,243.87,0,0,0,29.21-15.14C304.12,50,310.32,46.06,314.51,39.9ZM90.62,175.76c-1.89,1.07-2.66,2.72-3.43,4.34-2,4.29-4.11,8.57-6,12.91-3.88,8.66-7.57,17.43-9.68,26.71-1.82,8-3.89,16-2.35,24.36.4,2.17,1,3.87,3.22,4.6s4-.27,5.36-1.86c1.77-2.08,3.38-4.31,5-6.55a54.51,54.51,0,0,0,9.92-27.45c.85-10.25-.1-20.46-.22-30.69A10.57,10.57,0,0,0,90.62,175.76ZM77.56,126.53c5.39-4,8.39-8.43,11.34-12.85a1.83,1.83,0,0,0-.67-2.44c-3-.92-4.51,1.4-5.63,3.22C80.55,117.8,77.92,121.07,77.56,126.53ZM256.61,62c.86-2.64,3.19-5.08.12-8.06-.61,2.7-5,4-2.45,7.9Z"/><path class="cls-1" d="M19.92,111.6c-2.18-1.56-2-3.92-4.27-4.46,4-3.11,9.68-3,14.51.18C27.13,110,23.42,110.65,19.92,111.6Z"/><path class="cls-1" d="M148.42,56.82c2.16-1.2,3.14-4.31,6-3,2.23,1,2.47,3.33,2.06,5.68a11.93,11.93,0,0,1-4.67,2.43C149.8,61.11,148.8,59.57,148.42,56.82Z"/></svg>