<?xml version="1.0" encoding="utf-8"?>
<!-- Generator: Adobe Illustrator 25.4.1, SVG Export Plug-In . SVG Version: 6.00 Build 0)  -->
<svg version="1.1" id="レイヤー_1" xmlns="http://www.w3.org/2000/svg" xmlns:xlink="http://www.w3.org/1999/xlink" x="0px"
	 y="0px" viewBox="0 0 122 100" style="enable-background:new 0 0 122 100;" xml:space="preserve">
<style type="text/css">
	.st0{fill:#FF7600;}
</style>
<g>
	<g>
		<path class="st0" d="M116.9,12.9c0.4,1.7-0.4,2.7-1.6,3.6c-2.7,1.9-5.5,3.7-8.3,5.4c-2.2,1.3-4.5,2.5-6.8,3.6
			c-2,0.9-4,1.5-6.2,0.7c-0.4-0.1-0.8-0.2-1.1-0.2c-1.3,0.6-2.2,1.5-3.3,2.3c-2.6,1.8-4.8,3.9-7.5,5.5c-0.9,0.5-1.9,0.9-2.9,1.1
			c-3.4,0.5-5-1.3-6.4-4.9c-0.5-1.2-0.4-1.3-1.3-2.1c-1.3,2.3-2.6,4.7-3.9,7c-0.8,1.3-1.7,2.5-2.9,3.5c-1.4,1.2-2.8,1.7-4.5,0.7
			c-0.3-0.2-0.6-0.2-1-0.3c-1.2,1.3-1.6,3.1-2.8,4.4c-1.8,2-3.6,1.9-4.9-0.5c-0.5-1.1-1.1-2.1-0.6-3.4c0.2-0.6,0-1.1-0.9-1.3
			c-0.8,1.4-2.2,2.5-2.4,4.4c0,0.3-0.1,0.6-0.2,0.8c-1.7,1.8-2.6,4.1-3.7,6.4c-0.2,0.4-0.6,0.8-1.1,0.9c-1.3-0.9-1.4-1.1-0.9-2.5
			c0.5-1.3,0.5-2.5,0.2-4c-0.7,0.1-1,0.6-1.2,1c-0.7,1.2-1.4,2.4-1.9,3.7c-1.1,2.4-2.1,4.8-3.2,7.2c-1.3,2.9-1.4,6-1.1,9.2
			c0.3,4,0.6,8,0.4,12c-0.1,2.2-0.4,4.4-1.3,6.5c-0.9,2.1-1.5,4.3-2.7,6.3c-0.7,1.2-1.6,2.2-2.5,3.3c-0.8,0.9-1.7,1.8-3,1.3
			c-1.4-0.6-2.4-1.6-2.7-3.1c-0.3-1.7,0.1-3.5,0.2-5.2c0.3-4.6,2.2-8.8,3.8-13.1c1-2.8,2.5-5.4,3.9-8c1.6-3,2.6-6.1,1.9-9.6
			c-0.2-1.1-0.1-2.2,0.1-3.3c0.3-2,0.1-4-0.4-6.2c-0.9,0.8-1.7,1.4-2.4,2c-0.5,0.5-1,1-1.7,1.2c-2.4,0.4-4,2.2-5.6,3.7
			c-2.3,2.2-4.6,4.4-6.8,6.7c-1.6,1.6-3.5,2.9-5.3,4.3c-1.1,0.8-2.3,1-3.5,0.2c-1.2-0.8-1.4-2-1.2-3.3c0.4-2.3,1-4.6,1.4-6.9
			c0.2-1.4,0.4-2.7,0.8-4.1C7.7,49,8.1,48.5,9,49c0.1,4.3-1.9,8.3-1.9,12.4c1,0.9,1.7,0.6,2.5,0.2c2.2-1.1,4.1-2.5,5.9-4.2
			c2.8-2.5,5.3-5.3,8.2-7.7c0.9-0.7,1.3-1.7,1.3-2.9c0-2,0.7-3.8,1.9-5.4c1.1-1.3,2-2.8,3.4-3.9c0.6-0.5,1.3-0.8,2.1-0.9
			c1.5-0.1,2.8,0.8,2.4,2.5c-0.7,2.4-0.6,4.9-0.6,7.4c0,0.8-0.1,1.7-0.2,2.5c-0.2,1.3-0.3,2.6,0.3,3.8c0.9,0.2,1.2-0.4,1.5-1
			c1.7-3.6,3.4-7.1,5.1-10.7c0.6-1.2,0.2-2.8,1.1-4c1-0.4,2-0.3,2.7,0.8c0.2,1.1-0.8,2.3,0,3.3c0.5,0.2,0.9-0.1,1.1-0.4
			c0.8-1.6,2.3-2.8,3-4.5c0.1-0.3,0.3-0.6,0.6-0.9c0.9-0.9,1.9-0.9,2.6,0.1c0.6,0.8,0.9,1.8,1,2.9c0.1,1.6,0.1,1.6,1,2.8
			c0.7,0.3,1.2-0.1,1.6-0.6c0.6-0.7,1.1-1.4,1.4-2.3c1-2.3,2-4.5,2.7-6.9c0.1-0.2,0.3-0.5,0.4-0.7c1.6,0.6,1.7,0.8,1.6,2.2
			c-0.1,0.5-0.2,1.1-0.3,1.6c-0.1,0.8-0.2,1.5,0.5,2.1c0.9,0.4,1.5-0.2,2-0.7c1.1-0.9,2-2,2.7-3.1c1.9-2.8,3.6-5.7,5-8.8
			c0.8-1.9,1.1-3.9,0.9-6.1c-1.8,0.2-1.8,0.2-5.3,3.1c-0.5-0.3-0.4-0.7-0.1-1c0.5-0.8,1.1-1.6,2-2.1c0.8-0.4,1.4-1.1,2.2-1.6
			c1.6-0.9,2-2.3,2.3-4c0.2-1.3,0.5-2.6,0.8-3.9c0.2-0.9,0.6-1.8,1.1-2.6c0.9-0.2,1.3,0.3,1.3,1c0,1.6,0.2,3.2-0.5,4.7
			c-0.1,0.2-0.2,0.5,0,0.8c0.6,0.5,1.3,0.1,1.9-0.2c3.7-1.6,7.5-3.3,11.3-4.9C91.1,7,92.8,6.4,94.6,6c2.9-0.7,5.8-1.4,8.7-1.9
			c1.3-0.2,2.7-1,3.9-0.1c0.2,0.7-0.1,0.9-0.6,1c-0.5,0.1-1.1,0.3-1.6,0.4c-5.1,1.1-10.2,2.1-15.1,3.9c-2.7,1-5.3,1.9-7.8,3.3
			c-1.3,0.7-2.8,1.2-4.1,1.9c-1.8,1-3.2,1.9-3.4,4.4c-0.1,2.2-0.8,4.5-0.7,6.8c0.1,1.8,0.4,3.6,1.3,5.2c1.1,1.7,2.4,2.2,4.4,1.7
			c1.9-0.5,3.6-1.4,5.2-2.5c2-1.4,4.1-2.9,6-4.5c0.4-0.4,0.9-0.7,1.2-1.4c-0.3-3.2,0.2-6.3,3-8.5c1.9,1.2,2.6,2.8,1.9,4.6
			c-0.2,0.6-0.5,1.1-0.8,1.7c-0.4,0.6-0.6,1.2-0.2,2.1c1.2,0.4,2.5,0.4,3.8-0.1c3.8-1.6,7.5-3.6,11.1-5.7
			C113,16.7,115.3,15.2,116.9,12.9z M32.1,64.3c-0.7,0.4-1,1-1.3,1.6c-0.8,1.6-1.6,3.2-2.3,4.9c-1.5,3.3-2.9,6.6-3.7,10.1
			c-0.7,3-1.5,6.1-0.9,9.2c0.2,0.8,0.4,1.5,1.2,1.7c0.8,0.3,1.5-0.1,2-0.7c0.7-0.8,1.3-1.6,1.9-2.5c2.2-3.1,3.4-6.6,3.8-10.4
			c0.3-3.9,0-7.7-0.1-11.6C32.8,65.9,32.7,65.1,32.1,64.3z M27.2,45.7c2-1.5,3.2-3.2,4.3-4.9c0.2-0.3,0.1-0.7-0.3-0.9
			c-1.1-0.3-1.7,0.5-2.1,1.2C28.3,42.4,27.3,43.6,27.2,45.7z M95,21.3c0.3-1,1.2-1.9,0-3.1c-0.2,1-1.9,1.5-0.9,3
			C94.3,21.2,94.6,21.2,95,21.3z"/>
	</g>
	<g>
		<path class="st0" d="M5.4,40c-0.8-0.6-0.7-1.5-1.6-1.7c1.5-1.2,3.7-1.1,5.5,0.1C8.1,39.4,6.7,39.7,5.4,40z"/>
	</g>
	<g>
		<path class="st0" d="M54,19.3c0.8-0.5,1.2-1.6,2.3-1.1c0.8,0.4,0.9,1.3,0.8,2.2c-0.5,0.5-1.1,0.7-1.8,0.9
			C54.5,20.9,54.2,20.3,54,19.3z"/>
	</g>
</g>
</svg>
